<svg width="44" height="44" fill="none" xmlns="http://www.w3.org/2000/svg"><path fill-rule="evenodd" clip-rule="evenodd" d="M39 20.19l-.22-8.14H17.95l-1.9 19.56 17.63-4.89C38.55 25.32 39 22.3 39 20.2z" fill="#04E"/><path d="M14.3 40a3.08 3.08 0 0 0 3.06-3.1c0-1.72-1.37-3.1-3.07-3.1a3.09 3.09 0 0 0-3.07 3.1c0 1.71 1.37 3.1 3.07 3.1zm14.93 0c1.7 0 3.07-1.39 3.07-3.1 0-1.72-1.37-3.1-3.07-3.1a3.09 3.09 0 0 0-3.07 3.1c0 1.71 1.37 3.1 3.07 3.1z" fill="#555"/><path fill-rule="evenodd" clip-rule="evenodd" d="M20.68 12.05l-1.52-4.19A2.82 2.82 0 0 0 16.52 6h-8.6a1.63 1.63 0 1 0 0 3.26H16l1.79 4.9 2.88-2.1z" fill="#04E"/><path fill-rule="evenodd" clip-rule="evenodd" d="M34.37 20.2l-.23-8.15H12.56l-1.52-4.19A2.82 2.82 0 0 0 8.4 6H5.66a1.63 1.63 0 1 0 0 3.26H7.9l8.17 22.36 15.32-6.7c1.95-.87 3-2.62 3-4.73z" fill="#07F"/></svg>