<svg width="44" height="44" fill="none" xmlns="http://www.w3.org/2000/svg"><path d="M35 27.44c-.7 5.93-6.75 10.88-10.42 12.12-2.02.69-2.58-.61-2.58-1.93v-4.66s11-5.53 13-5.53z" fill="url(#paint0_linear)"/><path d="M8.7 13.88c.4-5.72 1.96-7.28 7.68-7.68 3.71-.27 7.53-.27 11.24 0 5.72.4 7.28 1.96 7.68 7.68.27 3.71.27 7.53 0 11.24-.4 5.72-1.96 7.28-7.68 7.68-3.71.26-7.53.26-11.24 0-5.72-.4-7.28-1.96-7.68-7.68a78.09 78.09 0 0 1 0-11.24z" fill="#F33"/><path d="M15.25 15c0-1.06 0-1.6.33-1.92.33-.33.86-.33 1.92-.33h2.81v5.06h-5.06V15z" fill="url(#paint1_linear)"/><path d="M15.25 21.19V24c0 1.06 0 1.6.33 1.92.33.33.86.33 1.92.33h2.81v-5.06h-5.06z" fill="url(#paint2_linear)"/><path d="M23.69 26.25v-13.5h2.81c1.06 0 1.6 0 1.92.33.33.33.33.86.33 1.92v9c0 1.06 0 1.6-.33 1.92-.33.33-.86.33-1.92.33h-2.81z" fill="url(#paint3_linear)"/><defs><linearGradient id="paint0_linear" x1="28.41" y1="27.61" x2="28.41" y2="39.94" gradientUnits="userSpaceOnUse"><stop offset=".1" stop-color="#C00109"/><stop offset=".87" stop-color="#F33"/></linearGradient><linearGradient id="paint1_linear" x1="22" y1="12.75" x2="22" y2="26.25" gradientUnits="userSpaceOnUse"><stop stop-color="#FFF191"/><stop offset="1" stop-color="#FD0"/></linearGradient><linearGradient id="paint2_linear" x1="22" y1="12.75" x2="22" y2="26.25" gradientUnits="userSpaceOnUse"><stop stop-color="#FFF191"/><stop offset="1" stop-color="#FD0"/></linearGradient><linearGradient id="paint3_linear" x1="22" y1="12.75" x2="22" y2="26.25" gradientUnits="userSpaceOnUse"><stop stop-color="#FFF191"/><stop offset="1" stop-color="#FD0"/></linearGradient></defs></svg>