<svg width="44" height="44" fill="none" xmlns="http://www.w3.org/2000/svg"><g clip-path="url(#clip0)"><path d="M15.85 28.84c-8.87-7.99-9.94-12.37-9.77-14.6-.17 2.15-.02 4.92.17 8.59.39 7.42.58 11.14 3.01 13.33 2.43 2.18 6.15 1.99 13.57 1.6 3.66-.2 6.43-.34 8.55-.73-2.2.4-6.66-.2-15.53-8.19z" fill="url(#paint0_linear)"/><path d="M34.75 7.84c-2.43-2.18-6.15-1.99-13.57-1.6-7.43.4-11.14.59-13.33 3.01-1.1 1.23-1.6 2.8-1.77 5-.17 2.22.88 6.58 9.77 14.59 8.89 8 13.33 8.6 15.53 8.2 2.17-.4 3.67-1.06 4.78-2.3 2.18-2.42 1.99-6.14 1.6-13.57-.4-7.42-.59-11.14-3.01-13.33z" fill="url(#paint1_linear)"/><path d="M26.77 33.73l-.06-.42c-.99-6.7-1.48-10.05-3.9-12.22-2.4-2.17-5.78-2.3-12.54-2.59l-.42-.02a3.95 3.95 0 0 1-3.77-4.24c-.08.49-.11 1-.03 1.48.18 1.1.56 2.19.98 3.02 1.2 2.35 3.64 6.07 8.5 10.45 4.86 4.38 8.82 6.42 11.27 7.36.87.34 2 .6 3.1.66.5.04 1-.05 1.47-.18a3.95 3.95 0 0 1-4.6-3.3z" fill="url(#paint2_linear)"/></g><defs><linearGradient id="paint0_linear" x1="7.08" y1="38.58" x2="30.13" y2="12.99" gradientUnits="userSpaceOnUse"><stop stop-color="#00E6E6"/><stop offset=".49" stop-color="#0059B3"/></linearGradient><linearGradient id="paint1_linear" x1="6.06" y1="37.13" x2="40.56" y2="9.16" gradientUnits="userSpaceOnUse"><stop stop-color="#00BFFF"/><stop offset="1" stop-color="#80FFEA"/></linearGradient><linearGradient id="paint2_linear" x1="16.09" y1="28.99" x2="22.35" y2="22.73" gradientUnits="userSpaceOnUse"><stop stop-color="#E6FBFF"/><stop offset="1" stop-color="#fff"/></linearGradient><clipPath id="clip0"><path fill="#fff" d="M6 6h32v32H6z"/></clipPath></defs></svg>