<svg width="44" height="44" fill="none" xmlns="http://www.w3.org/2000/svg"><path d="M15.1 15.27v.32l-3.83.02c-3.42 4.2-4.78 13.21-5.25 17.51A3.27 3.27 0 0 0 8 36.47c1.54.69 3.34.16 4.27-1.25l5.63-8.54c1.27-.26 2.75-.5 3.99-.5 1.21 0 2.81.23 4.22.48l5.65 8.56a3.43 3.43 0 0 0 4.27 1.25A3.3 3.3 0 0 0 38 33.12c-.47-4.3-1.83-13.3-5.24-17.5l-3.36-.01v-.34H15.1z" fill="url(#paint0_linear)"/><path fill-rule="evenodd" clip-rule="evenodd" d="M9.2 15.13h8.93V25.8H9.21V15.13zm16.26 0h10.27V25.8H25.46V15.13z" fill="#262626"/><path fill-rule="evenodd" clip-rule="evenodd" d="M13.46 27.94a7.47 7.47 0 1 0 0-14.94 7.47 7.47 0 0 0 0 14.94zm4.29-7.47c0-.6-.48-1.07-1.07-1.07h-2.13v-2.13a1.07 1.07 0 0 0-2.14 0v2.11h-2.13a1.07 1.07 0 0 0 0 2.15h2.1v2.14a1.07 1.07 0 0 0 2.15 0v-2.13h2.15c.59 0 1.07-.48 1.07-1.07zM30.53 13a7.47 7.47 0 1 1 0 14.94 7.47 7.47 0 0 1 0-14.94zm-3.2 9.07a1.6 1.6 0 0 1-1.6-1.6c0-.9.72-1.6 1.6-1.6.88 0 1.6.72 1.6 1.6 0 .88-.72 1.6-1.6 1.6zm4.8-1.6c0 .88.72 1.6 1.6 1.6.9 0 1.6-.72 1.6-1.6 0-.88-.72-1.6-1.6-1.6-.88 0-1.6.72-1.6 1.6zm-1.6-1.6a1.6 1.6 0 0 1-1.6-1.6c0-.9.72-1.6 1.6-1.6.88 0 1.6.72 1.6 1.6 0 .88-.72 1.6-1.6 1.6zm-1.6 4.8c0 .88.72 1.6 1.6 1.6.9 0 1.6-.72 1.6-1.6 0-.88-.72-1.6-1.6-1.6-.88 0-1.6.72-1.6 1.6z" fill="url(#paint1_linear)"/><defs><linearGradient id="paint0_linear" x1="22" y1="15.13" x2="22" y2="29.44" gradientUnits="userSpaceOnUse"><stop stop-color="#FDC42E"/><stop offset="1" stop-color="#ED9026"/></linearGradient><linearGradient id="paint1_linear" x1="13.47" y1="13" x2="13.47" y2="27.93" gradientUnits="userSpaceOnUse"><stop stop-color="#FDC42E"/><stop offset="1" stop-color="#ED8F25"/></linearGradient></defs></svg>